<svg xmlns="http://www.w3.org/2000/svg" width="700" height="700" pointer-events="all"><defs><style><![CDATA[circle.node{stroke:#fff;stroke-width:1.5px}circle.node.color0{fill:#36a}circle.node.color1{fill:#e33}circle.node.color2{fill:#6a5}circle.node.color3{fill:#fe3;stroke:#aaa}circle.node.color4{fill:#928}circle.node.asked2{fill-opacity:.75}#text_holder>g{display:none}#text_holder>g.show{display:block}#text_holder>g text{font:10px sans-serif;pointer-events:none;text-anchor:middle}#text_holder>g text.shadow{stroke:#fff;stroke-width:3px;stroke-opacity:.8;text-anchor:middle;fill:none}#link_holder path.link{fill:none;stroke:#666;stroke-width:1px}]]></style></defs><path fill="#fff" d="M0 0h700v700H0z"/><defs><marker id="regular" markerHeight="6" markerWidth="6" orient="auto" refX="21" refY="0" style="fill:#666" viewBox="0 -5 10 10"><path d="m0-5 10 5L0 5"/></marker><marker id="inactive" markerHeight="6" markerWidth="6" orient="auto" refX="21" refY="0" style="fill:#666;fill-opacity:.2" viewBox="0 -5 10 10"><path d="m0-5 10 5L0 5"/></marker><marker id="active_in" markerHeight="6" markerWidth="6" orient="auto" refX="21" refY="0" style="fill:#268bd2" viewBox="0 -5 10 10"><path d="m0-5 10 5L0 5"/></marker><marker id="active_out" markerHeight="6" markerWidth="6" orient="auto" refX="21" refY="0" style="fill:#dc322f" viewBox="0 -5 10 10"><path d="m0-5 10 5L0 5"/></marker><marker id="active_mutual" markerHeight="6" markerWidth="6" orient="auto" refX="21" refY="0" style="fill:#859900" viewBox="0 -5 10 10"><path d="m0-5 10 5L0 5"/></marker></defs><g id="link_holder"><path marker-end="url(#regular)" d="m332.708 385.528 88.442 111.52" class="link" data-source-id="83546" data-target-id="83548"/><path marker-end="url(#regular)" d="m332.708 385.528 33.43-111.427" class="link" data-source-id="83546" data-target-id="83551"/><path marker-end="url(#regular)" d="m332.708 385.528 129.12 28.232" class="link" data-source-id="83546" data-target-id="83577"/><path marker-end="url(#regular)" d="m332.708 385.528-123.486-30.4" class="link" data-source-id="83546" data-target-id="83593"/><path marker-end="url(#regular)" d="m332.708 385.528-119.7 31.433" class="link" data-source-id="83546" data-target-id="83597"/><path marker-end="url(#regular)" d="m332.708 385.528 101.018-48.932" class="link" data-source-id="83546" data-target-id="83613"/><path marker-end="url(#regular)" d="m332.708 385.528-81.588 82.831" class="link" data-source-id="83546" data-target-id="83662"/><path marker-end="url(#regular)" d="m332.708 385.528-55.807-74.144" class="link" data-source-id="83546" data-target-id="83669"/><path marker-end="url(#regular)" d="m387.106 392.714 34.044 104.333" class="link" data-source-id="83547" data-target-id="83548"/><path marker-end="url(#regular)" d="m387.106 392.714-20.967-118.613" class="link" data-source-id="83547" data-target-id="83551"/><path marker-end="url(#regular)" d="m387.106 392.714-58.072 105.464" class="link" data-source-id="83547" data-target-id="83563"/><path marker-end="url(#regular)" d="m387.106 392.714 110.141-50.784" class="link" data-source-id="83547" data-target-id="83564"/><path marker-end="url(#regular)" d="m387.106 392.714 74.723 21.046" class="link" data-source-id="83547" data-target-id="83577"/><path marker-end="url(#regular)" d="m387.106 392.714 46.62-56.118" class="link" data-source-id="83547" data-target-id="83613"/><path marker-end="url(#regular)" d="M-139.576 452.251 571.35 173.604" class="link" data-source-id="83549" data-target-id="83579"/><path marker-end="url(#regular)" d="m-139.576 452.251 348.798-97.124" class="link" data-source-id="83549" data-target-id="83593"/><path marker-end="url(#regular)" d="m-139.576 452.251-57.59-60.015" class="link" data-source-id="83549" data-target-id="83598"/><path marker-end="url(#regular)" d="M-139.576 452.251-4.242 597.068" class="link" data-source-id="83549" data-target-id="83629"/><path marker-end="url(#regular)" d="m590.77 360.348-730.346 91.903" class="link" data-source-id="83550" data-target-id="83549"/><path marker-end="url(#regular)" d="m590.77 360.348-224.631-86.247" class="link" data-source-id="83550" data-target-id="83551"/><path marker-end="url(#regular)" d="M590.77 360.348-174.61 540.83" class="link" data-source-id="83550" data-target-id="83575"/><path marker-end="url(#regular)" d="m590.77 360.348-19.42-186.744" class="link" data-source-id="83550" data-target-id="83579"/><path marker-end="url(#regular)" d="m590.77 360.348-377.763 56.613" class="link" data-source-id="83550" data-target-id="83597"/><path marker-end="url(#regular)" d="M590.77 360.348 470.988-164.135" class="link" data-source-id="83550" data-target-id="83625"/><path marker-end="url(#regular)" d="m590.77 360.348-19.426-107.213" class="link" data-source-id="83550" data-target-id="83636"/><path marker-end="url(#regular)" d="m366.139 274.101 20.967 118.613" class="link" data-source-id="83551" data-target-id="83547"/><path marker-end="url(#regular)" d="m366.139 274.101-37.105 224.077" class="link" data-source-id="83551" data-target-id="83563"/><path marker-end="url(#regular)" d="m366.139 274.101 67.587 62.495" class="link" data-source-id="83551" data-target-id="83613"/><path marker-end="url(#regular)" d="m366.139 274.101-122.308-26.22" class="link" data-source-id="83551" data-target-id="83620"/><path marker-end="url(#regular)" d="m366.139 274.101 134.648 246.41" class="link" data-source-id="83551" data-target-id="83668"/><path marker-end="url(#regular)" d="M366.139 274.101 276.9 311.384" class="link" data-source-id="83551" data-target-id="83669"/><path marker-end="url(#regular)" d="m366.139 274.101 9.183-97.588" class="link" data-source-id="83551" data-target-id="83670"/><path marker-end="url(#regular)" d="m366.139 274.101-93.357-78.118" class="link" data-source-id="83551" data-target-id="83671"/><path marker-end="url(#regular)" d="m366.139 274.101-51.561-119.734" class="link" data-source-id="83551" data-target-id="83672"/><path marker-end="url(#regular)" d="M366.139 274.101 643.416 17.447" class="link" data-source-id="83551" data-target-id="83686"/><path marker-end="url(#regular)" d="m79.986 217.518 48.05-79.575" class="link" data-source-id="83558" data-target-id="83565"/><path marker-end="url(#regular)" d="m554.971 581.51-133.82-84.463" class="link" data-source-id="83559" data-target-id="83548"/><path marker-end="url(#regular)" d="m554.971 581.51 106.068-35.92" class="link" data-source-id="83559" data-target-id="83566"/><path marker-end="url(#regular)" d="m554.971 581.51 57.23-104.443" class="link" data-source-id="83559" data-target-id="83567"/><path marker-end="url(#regular)" d="m554.971 581.51 78.987 81.493" class="link" data-source-id="83559" data-target-id="83568"/><path marker-end="url(#regular)" d="M554.971 581.51 19.75 714.841" class="link" data-source-id="83559" data-target-id="83576"/><path marker-end="url(#regular)" d="m554.971 581.51-83.137 67.747" class="link" data-source-id="83559" data-target-id="83580"/><path marker-end="url(#regular)" d="m554.971 581.51 23.053 110.25" class="link" data-source-id="83559" data-target-id="83581"/><path marker-end="url(#regular)" d="m554.971 581.51 111.025 26.652" class="link" data-source-id="83559" data-target-id="83632"/><path marker-end="url(#regular)" d="M554.971 581.51 514.8 695.968" class="link" data-source-id="83559" data-target-id="83635"/><path marker-end="url(#regular)" d="m-4.55 238.458 84.536-20.94" class="link" data-source-id="83560" data-target-id="83558"/><path marker-end="url(#regular)" d="m-4.55 238.458 132.585-100.515" class="link" data-source-id="83560" data-target-id="83565"/><path marker-end="url(#regular)" d="M-4.55 238.458 661.038 545.59" class="link" data-source-id="83560" data-target-id="83566"/><path marker-end="url(#regular)" d="M-4.55 238.458 612.2 477.067" class="link" data-source-id="83560" data-target-id="83567"/><path marker-end="url(#regular)" d="m-4.55 238.458 638.508 424.545" class="link" data-source-id="83560" data-target-id="83568"/><path marker-end="url(#regular)" d="m-4.55 238.458 670.546 369.704" class="link" data-source-id="83560" data-target-id="83632"/><path marker-end="url(#regular)" d="m891.313 477.832-504.207-85.118" class="link" data-source-id="83584" data-target-id="83547"/><path marker-end="url(#regular)" d="M891.313 477.832 211.482 30.272" class="link" data-source-id="83584" data-target-id="83588"/><path marker-end="url(#regular)" d="m891.313 477.832-655.152-559.4" class="link" data-source-id="83584" data-target-id="83592"/><path marker-end="url(#regular)" d="M891.313 477.832-118.38 62.358" class="link" data-source-id="83584" data-target-id="83675"/><path marker-end="url(#regular)" d="M466.245 196.176 366.14 274.101" class="link" data-source-id="83619" data-target-id="83551"/><path marker-end="url(#regular)" d="M466.245 196.176 414.026 91.361" class="link" data-source-id="83619" data-target-id="83570"/><path marker-end="url(#regular)" d="m466.245 196.176 105.105-22.572" class="link" data-source-id="83619" data-target-id="83579"/><path marker-end="url(#regular)" d="m466.245 196.176 17.133-110.155" class="link" data-source-id="83619" data-target-id="83591"/><path marker-end="url(#regular)" d="m466.245 196.176 79.939-83.155" class="link" data-source-id="83619" data-target-id="83607"/><path marker-end="url(#regular)" d="m466.245 196.176 105.099 56.959" class="link" data-source-id="83619" data-target-id="83636"/><path marker-end="url(#regular)" d="M500.787 520.51 209.222 355.127" class="link" data-source-id="83668" data-target-id="83593"/><path marker-end="url(#regular)" d="M500.787 520.51 39.977 336.03" class="link" data-source-id="83668" data-target-id="83633"/><path marker-end="url(#regular)" d="m191.759 614.451-92.347-6.675" class="link" data-source-id="83678" data-target-id="83557"/><path marker-end="url(#regular)" d="m191.759 614.451-50.17-79.08" class="link" data-source-id="83678" data-target-id="83606"/><path marker-end="url(#regular)" d="M191.759 614.451 146.6 689.016" class="link" data-source-id="83678" data-target-id="83616"/><path marker-end="url(#regular)" d="m191.759 614.451 274.486-418.275" class="link" data-source-id="83678" data-target-id="83619"/><path marker-end="url(#regular)" d="M191.759 614.451 560.273-44.957" class="link" data-source-id="83678" data-target-id="83657"/><path marker-end="url(#regular)" d="m191.759 614.451 599.019-443.795" class="link" data-source-id="83678" data-target-id="83680"/><path marker-end="url(#regular)" d="M191.759 614.451 656.237-106.35" class="link" data-source-id="83678" data-target-id="83681"/><path marker-end="url(#regular)" d="M191.759 614.451 456.383-47.617" class="link" data-source-id="83678" data-target-id="83682"/><path marker-end="url(#regular)" d="m191.759 614.451-28.792 262.113" class="link" data-source-id="83678" data-target-id="83683"/><path marker-end="url(#regular)" d="m545.778 417.476-48.531-75.546" class="link" data-source-id="83684" data-target-id="83564"/><path marker-end="url(#regular)" d="m545.778 417.476 66.423 59.59" class="link" data-source-id="83684" data-target-id="83567"/><path marker-end="url(#regular)" d="m545.778 417.476-112.052-80.88" class="link" data-source-id="83684" data-target-id="83613"/><path marker-end="url(#regular)" d="m545.778 417.476-44.99 103.034" class="link" data-source-id="83684" data-target-id="83668"/><path marker-end="url(#regular)" d="m545.778 417.476 118.907-25.668" class="link" data-source-id="83684" data-target-id="83685"/></g><g id="node_holder"><circle r="6" class="node color2 asked1" data-id="83546" transform="translate(332.708 385.528)"/><circle r="6" class="node color2 asked1" data-id="83547" transform="translate(387.106 392.714)"/><circle r="6" class="node color2 asked2" data-id="83548" transform="translate(421.15 497.047)"/><circle r="6" class="node color2 asked1" data-id="83549" transform="translate(-139.576 452.251)"/><circle r="6" class="node color2 asked1" data-id="83550" transform="translate(590.77 360.348)"/><circle r="6" class="node color2 asked1" data-id="83551" transform="translate(366.139 274.101)"/><circle r="6" class="node color2 asked2" data-id="83553" transform="translate(-113.67 618.52)"/><circle r="6" class="node color2 asked1" data-id="83555" transform="translate(381.604 -202.054)"/><circle r="6" class="node color2 asked2" data-id="83557" transform="translate(99.412 607.776)"/><circle r="6" class="node color0 asked1" data-id="83558" transform="translate(79.986 217.518)"/><circle r="6" class="node color0 asked1" data-id="83559" transform="translate(554.971 581.51)"/><circle r="6" class="node color0 asked1" data-id="83560" transform="translate(-4.55 238.458)"/><circle r="6" class="node color1 asked2" data-id="83561" transform="translate(46.132 -54.208)"/><circle r="6" class="node color3 asked2" data-id="83563" transform="translate(329.034 498.178)"/><circle r="6" class="node color4 asked2" data-id="83564" transform="translate(497.247 341.93)"/><circle r="6" class="node color0 asked2" data-id="83565" transform="translate(128.035 137.943)"/><circle r="6" class="node color0 asked2" data-id="83566" transform="translate(661.039 545.59)"/><circle r="6" class="node color0 asked2" data-id="83567" transform="translate(612.201 477.067)"/><circle r="6" class="node color0 asked2" data-id="83568" transform="translate(633.958 663.003)"/><circle r="6" class="node color1 asked2" data-id="83570" transform="translate(414.026 91.36)"/><circle r="6" class="node color1 asked2" data-id="83571" transform="translate(898.672 360.68)"/><circle r="6" class="node color1 asked2" data-id="83573" transform="translate(89.211 -134.12)"/><circle r="6" class="node color4 asked2" data-id="83574" transform="translate(-172.892 169.897)"/><circle r="6" class="node color4 asked2" data-id="83575" transform="translate(-174.61 540.83)"/><circle r="6" class="node color3 asked2" data-id="83576" transform="translate(19.75 714.841)"/><circle r="6" class="node color2 asked2" data-id="83577" transform="translate(461.829 413.76)"/><circle r="6" class="node color2 asked2" data-id="83579" transform="translate(571.35 173.604)"/><circle r="6" class="node color2 asked2" data-id="83580" transform="translate(471.834 649.257)"/><circle r="6" class="node color2 asked2" data-id="83581" transform="translate(578.024 691.76)"/><circle r="6" class="node color2 asked2" data-id="83582" transform="translate(880.547 152.034)"/><circle r="6" class="node color2 asked1" data-id="83584" transform="translate(891.313 477.832)"/><circle r="6" class="node color2 asked2" data-id="83586" transform="translate(276.855 -191.485)"/><circle r="6" class="node color2 asked2" data-id="83587" transform="translate(563.124 -155.76)"/><circle r="6" class="node color2 asked2" data-id="83588" transform="translate(211.482 30.271)"/><circle r="6" class="node color2 asked2" data-id="83589" transform="translate(49.741 444.959)"/><circle r="6" class="node color2 asked2" data-id="83591" transform="translate(483.378 86.02)"/><circle r="6" class="node color2 asked2" data-id="83592" transform="translate(236.16 -81.569)"/><circle r="6" class="node color2 asked2" data-id="83593" transform="translate(209.222 355.127)"/><circle r="6" class="node color2 asked2" data-id="83595" transform="translate(804.094 410.086)"/><circle r="6" class="node color2 asked2" data-id="83597" transform="translate(213.007 416.961)"/><circle r="6" class="node color2 asked2" data-id="83598" transform="translate(-197.165 392.236)"/><circle r="6" class="node color2 asked2" data-id="83599" transform="translate(778.403 698.162)"/><circle r="6" class="node color2 asked2" data-id="83600" transform="translate(406.21 604.946)"/><circle r="6" class="node color2 asked2" data-id="83601" transform="translate(781.095 301.596)"/><circle r="6" class="node color2 asked1" data-id="83603" transform="translate(239.79 782.303)"/><circle r="6" class="node color2 asked2" data-id="83604" transform="translate(361.209 -101.513)"/><circle r="6" class="node color2 asked2" data-id="83606" transform="translate(141.588 535.37)"/><circle r="6" class="node color2 asked2" data-id="83607" transform="translate(546.184 113.021)"/><circle r="6" class="node color2 asked2" data-id="83608" transform="translate(430.413 810.984)"/><circle r="6" class="node color2 asked2" data-id="83609" transform="translate(590.524 836.082)"/><circle r="6" class="node color2 asked2" data-id="83610" transform="translate(-4.681 49.119)"/><circle r="6" class="node color2 asked2" data-id="83611" transform="translate(712.122 92.846)"/><circle r="6" class="node color2 asked2" data-id="83613" transform="translate(433.726 336.596)"/><circle r="6" class="node color2 asked2" data-id="83614" transform="translate(34.284 810.832)"/><circle r="6" class="node color2 asked2" data-id="83616" transform="translate(146.6 689.016)"/><circle r="6" class="node color2 asked2" data-id="83617" transform="translate(288.997 679.978)"/><circle r="6" class="node color2 asked1" data-id="83619" transform="translate(466.245 196.176)"/><circle r="6" class="node color2 asked2" data-id="83620" transform="translate(243.831 247.882)"/><circle r="6" class="node color2 asked2" data-id="83625" transform="translate(470.988 -164.135)"/><circle r="6" class="node color2 asked2" data-id="83626" transform="translate(848.357 605.98)"/><circle r="6" class="node color4 asked2" data-id="83627" transform="translate(-52.886 386.717)"/><circle r="6" class="node color3 asked2" data-id="83629" transform="translate(-4.242 597.068)"/><circle r="6" class="node color0 asked2" data-id="83630" transform="translate(-68.866 703.66)"/><circle r="6" class="node color0 asked2" data-id="83631" transform="translate(40.525 135.535)"/><circle r="6" class="node color0 asked2" data-id="83632" transform="translate(665.996 608.162)"/><circle r="6" class="node color1 asked2" data-id="83633" transform="translate(39.978 336.03)"/><circle r="6" class="node color2 asked2" data-id="83634" transform="translate(498.762 880.566)"/><circle r="6" class="node color0 asked2" data-id="83635" transform="translate(514.799 695.968)"/><circle r="6" class="node color2 asked2" data-id="83636" transform="translate(571.344 253.135)"/><circle r="6" class="node color2 asked2" data-id="83637" transform="translate(-48.508 -37.199)"/><circle r="6" class="node color2 asked2" data-id="83657" transform="translate(560.273 -44.957)"/><circle r="6" class="node color2 asked2" data-id="83658" transform="translate(312.94 -13.59)"/><circle r="6" class="node color2 asked2" data-id="83659" transform="translate(-104.46 294.533)"/><circle r="6" class="node color2 asked2" data-id="83660" transform="translate(132.592 787)"/><circle r="6" class="node color2 asked2" data-id="83661" transform="translate(377.69 902.976)"/><circle r="6" class="node color2 asked2" data-id="83662" transform="translate(251.12 468.359)"/><circle r="6" class="node color2 asked2" data-id="83663" transform="translate(796.525 525.142)"/><circle r="6" class="node color2 asked2" data-id="83664" transform="translate(696.615 789.624)"/><circle r="6" class="node color2 asked2" data-id="83666" transform="translate(708.133 216.526)"/><circle r="6" class="node color2 asked2" data-id="83667" transform="translate(-79.686 165.401)"/><circle r="6" class="node color2 asked1" data-id="83668" transform="translate(500.787 520.51)"/><circle r="6" class="node color2 asked2" data-id="83669" transform="translate(276.9 311.384)"/><circle r="6" class="node color2 asked2" data-id="83670" transform="translate(375.322 176.513)"/><circle r="6" class="node color2 asked2" data-id="83671" transform="translate(272.782 195.983)"/><circle r="6" class="node color2 asked2" data-id="83672" transform="translate(314.578 154.367)"/><circle r="6" class="node color2 asked2" data-id="83673" transform="translate(734.973 -37.386)"/><circle r="6" class="node color2 asked2" data-id="83674" transform="translate(808.161 41.082)"/><circle r="6" class="node color2 asked2" data-id="83675" transform="translate(-118.38 62.358)"/><circle r="6" class="node color2 asked2" data-id="83676" transform="translate(-35.538 503.473)"/><circle r="6" class="node color2 asked2" data-id="83677" transform="translate(-197.898 279.673)"/><circle r="6" class="node color2 asked1" data-id="83678" transform="translate(191.759 614.451)"/><circle r="6" class="node color2 asked2" data-id="83679" transform="translate(341.876 773.045)"/><circle r="6" class="node color2 asked2" data-id="83680" transform="translate(790.778 170.656)"/><circle r="6" class="node color2 asked2" data-id="83681" transform="translate(656.237 -106.351)"/><circle r="6" class="node color2 asked2" data-id="83682" transform="translate(456.383 -47.617)"/><circle r="6" class="node color2 asked2" data-id="83683" transform="translate(162.967 876.564)"/><circle r="6" class="node color0 asked1" data-id="83684" transform="translate(545.778 417.476)"/><circle r="6" class="node color2 asked2" data-id="83685" transform="translate(664.685 391.808)"/><circle r="6" class="node color2 asked2" data-id="83686" transform="translate(643.416 17.447)"/><circle r="6" class="node color2 asked2" data-id="83687" transform="translate(127.75 -4.125)"/><circle r="6" class="node color2 asked2" data-id="83688" transform="translate(275.747 887.945)"/><circle r="6" class="node color2 asked2" data-id="83689" transform="translate(175.963 -165.248)"/><circle r="6" class="node color2 asked2" data-id="83690" transform="translate(879.995 261.6)"/></g><g id="text_holder"><g id="text_label_83546" class="show"><text y="-10" class="shadow" transform="translate(332.708 385.528)">Misganu H.</text><text y="-10" transform="translate(332.708 385.528)">Misganu H.</text></g><g id="text_label_83547" class="show"><text y="-10" class="shadow" transform="translate(387.106 392.714)">Demeke B.</text><text y="-10" transform="translate(387.106 392.714)">Demeke B.</text></g><g id="text_label_83548" class="show"><text y="-10" class="shadow" transform="translate(421.15 497.047)">Abayneh A.</text><text y="-10" transform="translate(421.15 497.047)">Abayneh A.</text></g><g id="text_label_83549" class="show"><text y="-10" class="shadow" transform="translate(-139.576 452.251)">Tizahun M.</text><text y="-10" transform="translate(-139.576 452.251)">Tizahun M.</text></g><g id="text_label_83550" class="show"><text y="-10" class="shadow" transform="translate(590.77 360.348)">Habitamu F.</text><text y="-10" transform="translate(590.77 360.348)">Habitamu F.</text></g><g id="text_label_83551" class="show"><text y="-10" class="shadow" transform="translate(366.139 274.101)">Desta A.</text><text y="-10" transform="translate(366.139 274.101)">Desta A.</text></g><g id="text_label_83553" class="show"><text y="-10" class="shadow" transform="translate(-113.67 618.52)">Grima B.</text><text y="-10" transform="translate(-113.67 618.52)">Grima B.</text></g><g id="text_label_83555" class="show"><text y="-10" class="shadow" transform="translate(381.604 -202.054)">Kebebush A.</text><text y="-10" transform="translate(381.604 -202.054)">Kebebush A.</text></g><g id="text_label_83557" class="show"><text y="-10" class="shadow" transform="translate(99.412 607.776)">Birtukani B.</text><text y="-10" transform="translate(99.412 607.776)">Birtukani B.</text></g><g id="text_label_83558" class="show"><text y="-10" class="shadow" transform="translate(79.986 217.518)">Kindu M.</text><text y="-10" transform="translate(79.986 217.518)">Kindu M.</text></g><g id="text_label_83559" class="show"><text y="-10" class="shadow" transform="translate(554.971 581.51)">Melkamu B.</text><text y="-10" transform="translate(554.971 581.51)">Melkamu B.</text></g><g id="text_label_83560" class="show"><text y="-10" class="shadow" transform="translate(-4.55 238.458)">Simret Y.</text><text y="-10" transform="translate(-4.55 238.458)">Simret Y.</text></g><g id="text_label_83561" class="show"><text y="-10" class="shadow" transform="translate(46.132 -54.208)">Lulseged T.</text><text y="-10" transform="translate(46.132 -54.208)">Lulseged T.</text></g><g id="text_label_83563" class="show"><text y="-10" class="shadow" transform="translate(329.034 498.178)">Balechewo H.</text><text y="-10" transform="translate(329.034 498.178)">Balechewo H.</text></g><g id="text_label_83564" class="show"><text y="-10" class="shadow" transform="translate(497.247 341.93)">Teriku H.</text><text y="-10" transform="translate(497.247 341.93)">Teriku H.</text></g><g id="text_label_83565" class="show"><text y="-10" class="shadow" transform="translate(128.035 137.943)">Peter T.</text><text y="-10" transform="translate(128.035 137.943)">Peter T.</text></g><g id="text_label_83566" class="show"><text y="-10" class="shadow" transform="translate(661.039 545.59)">Addisu A.</text><text y="-10" transform="translate(661.039 545.59)">Addisu A.</text></g><g id="text_label_83567" class="show"><text y="-10" class="shadow" transform="translate(612.201 477.067)">Workeneh D.</text><text y="-10" transform="translate(612.201 477.067)">Workeneh D.</text></g><g id="text_label_83568" class="show"><text y="-10" class="shadow" transform="translate(633.958 663.003)">Mohammed E.</text><text y="-10" transform="translate(633.958 663.003)">Mohammed E.</text></g><g id="text_label_83570" class="show"><text y="-10" class="shadow" transform="translate(414.026 91.36)">Tilahun A.</text><text y="-10" transform="translate(414.026 91.36)">Tilahun A.</text></g><g id="text_label_83571" class="show"><text y="-10" class="shadow" transform="translate(898.672 360.68)">Walter M.</text><text y="-10" transform="translate(898.672 360.68)">Walter M.</text></g><g id="text_label_83573" class="show"><text y="-10" class="shadow" transform="translate(89.211 -134.12)">Aster G.</text><text y="-10" transform="translate(89.211 -134.12)">Aster G.</text></g><g id="text_label_83574" class="show"><text y="-10" class="shadow" transform="translate(-172.892 169.897)">Dasta B.</text><text y="-10" transform="translate(-172.892 169.897)">Dasta B.</text></g><g id="text_label_83575" class="show"><text y="-10" class="shadow" transform="translate(-174.61 540.83)">Degu K.</text><text y="-10" transform="translate(-174.61 540.83)">Degu K.</text></g><g id="text_label_83576" class="show"><text y="-10" class="shadow" transform="translate(19.75 714.841)">Tesfaye H.</text><text y="-10" transform="translate(19.75 714.841)">Tesfaye H.</text></g><g id="text_label_83577" class="show"><text y="-10" class="shadow" transform="translate(461.829 413.76)">Asefa B.</text><text y="-10" transform="translate(461.829 413.76)">Asefa B.</text></g><g id="text_label_83579" class="show"><text y="-10" class="shadow" transform="translate(571.35 173.604)">Aboye B.</text><text y="-10" transform="translate(571.35 173.604)">Aboye B.</text></g><g id="text_label_83580" class="show"><text y="-10" class="shadow" transform="translate(471.834 649.257)">Aduga T.</text><text y="-10" transform="translate(471.834 649.257)">Aduga T.</text></g><g id="text_label_83581" class="show"><text y="-10" class="shadow" transform="translate(578.024 691.76)">Ajebu N.</text><text y="-10" transform="translate(578.024 691.76)">Ajebu N.</text></g><g id="text_label_83582" class="show"><text y="-10" class="shadow" transform="translate(880.547 152.034)">Aknu W.</text><text y="-10" transform="translate(880.547 152.034)">Aknu W.</text></g><g id="text_label_83584" class="show"><text y="-10" class="shadow" transform="translate(891.313 477.832)">Ayano J.</text><text y="-10" transform="translate(891.313 477.832)">Ayano J.</text></g><g id="text_label_83586" class="show"><text y="-10" class="shadow" transform="translate(276.855 -191.485)">Barket T.</text><text y="-10" transform="translate(276.855 -191.485)">Barket T.</text></g><g id="text_label_83587" class="show"><text y="-10" class="shadow" transform="translate(563.124 -155.76)">Behayiu T.</text><text y="-10" transform="translate(563.124 -155.76)">Behayiu T.</text></g><g id="text_label_83588" class="show"><text y="-10" class="shadow" transform="translate(211.482 30.271)">Bekele E.</text><text y="-10" transform="translate(211.482 30.271)">Bekele E.</text></g><g id="text_label_83589" class="show"><text y="-10" class="shadow" transform="translate(49.741 444.959)">Berihamu A.</text><text y="-10" transform="translate(49.741 444.959)">Berihamu A.</text></g><g id="text_label_83591" class="show"><text y="-10" class="shadow" transform="translate(483.378 86.02)">Chekose W.</text><text y="-10" transform="translate(483.378 86.02)">Chekose W.</text></g><g id="text_label_83592" class="show"><text y="-10" class="shadow" transform="translate(236.16 -81.569)">Daise W.</text><text y="-10" transform="translate(236.16 -81.569)">Daise W.</text></g><g id="text_label_83593" class="show"><text y="-10" class="shadow" transform="translate(209.222 355.127)">Damake B.</text><text y="-10" transform="translate(209.222 355.127)">Damake B.</text></g><g id="text_label_83595" class="show"><text y="-10" class="shadow" transform="translate(804.094 410.086)">Degu M.</text><text y="-10" transform="translate(804.094 410.086)">Degu M.</text></g><g id="text_label_83597" class="show"><text y="-10" class="shadow" transform="translate(213.007 416.961)">Ewentu M.</text><text y="-10" transform="translate(213.007 416.961)">Ewentu M.</text></g><g id="text_label_83598" class="show"><text y="-10" class="shadow" transform="translate(-197.165 392.236)">Eyoale T.</text><text y="-10" transform="translate(-197.165 392.236)">Eyoale T.</text></g><g id="text_label_83599" class="show"><text y="-10" class="shadow" transform="translate(778.403 698.162)">Getehum E.</text><text y="-10" transform="translate(778.403 698.162)">Getehum E.</text></g><g id="text_label_83600" class="show"><text y="-10" class="shadow" transform="translate(406.21 604.946)">Gezaw A.</text><text y="-10" transform="translate(406.21 604.946)">Gezaw A.</text></g><g id="text_label_83601" class="show"><text y="-10" class="shadow" transform="translate(781.095 301.596)">Gezehane K.</text><text y="-10" transform="translate(781.095 301.596)">Gezehane K.</text></g><g id="text_label_83603" class="show"><text y="-10" class="shadow" transform="translate(239.79 782.303)">Grima B.</text><text y="-10" transform="translate(239.79 782.303)">Grima B.</text></g><g id="text_label_83604" class="show"><text y="-10" class="shadow" transform="translate(361.209 -101.513)">Hayieyesus T.</text><text y="-10" transform="translate(361.209 -101.513)">Hayieyesus T.</text></g><g id="text_label_83606" class="show"><text y="-10" class="shadow" transform="translate(141.588 535.37)">Hundame T.</text><text y="-10" transform="translate(141.588 535.37)">Hundame T.</text></g><g id="text_label_83607" class="show"><text y="-10" class="shadow" transform="translate(546.184 113.021)">Mathios L.</text><text y="-10" transform="translate(546.184 113.021)">Mathios L.</text></g><g id="text_label_83608" class="show"><text y="-10" class="shadow" transform="translate(430.413 810.984)">Matuose A.</text><text y="-10" transform="translate(430.413 810.984)">Matuose A.</text></g><g id="text_label_83609" class="show"><text y="-10" class="shadow" transform="translate(590.524 836.082)">Mutufeta M.</text><text y="-10" transform="translate(590.524 836.082)">Mutufeta M.</text></g><g id="text_label_83610" class="show"><text y="-10" class="shadow" transform="translate(-4.681 49.119)">Nadaw F.</text><text y="-10" transform="translate(-4.681 49.119)">Nadaw F.</text></g><g id="text_label_83611" class="show"><text y="-10" class="shadow" transform="translate(712.122 92.846)">Sadik A.</text><text y="-10" transform="translate(712.122 92.846)">Sadik A.</text></g><g id="text_label_83613" class="show"><text y="-10" class="shadow" transform="translate(433.726 336.596)">Solomon K.</text><text y="-10" transform="translate(433.726 336.596)">Solomon K.</text></g><g id="text_label_83614" class="show"><text y="-10" class="shadow" transform="translate(34.284 810.832)">Tamirat A.</text><text y="-10" transform="translate(34.284 810.832)">Tamirat A.</text></g><g id="text_label_83616" class="show"><text y="-10" class="shadow" transform="translate(146.6 689.016)">Tarekech L.</text><text y="-10" transform="translate(146.6 689.016)">Tarekech L.</text></g><g id="text_label_83617" class="show"><text y="-10" class="shadow" transform="translate(288.997 679.978)">Temame S.</text><text y="-10" transform="translate(288.997 679.978)">Temame S.</text></g><g id="text_label_83619" class="show"><text y="-10" class="shadow" transform="translate(466.245 196.176)">Temesgen A.</text><text y="-10" transform="translate(466.245 196.176)">Temesgen A.</text></g><g id="text_label_83620" class="show"><text y="-10" class="shadow" transform="translate(243.831 247.882)">Tesama M.</text><text y="-10" transform="translate(243.831 247.882)">Tesama M.</text></g><g id="text_label_83625" class="show"><text y="-10" class="shadow" transform="translate(470.988 -164.135)">Tsedeke Z.</text><text y="-10" transform="translate(470.988 -164.135)">Tsedeke Z.</text></g><g id="text_label_83626" class="show"><text y="-10" class="shadow" transform="translate(848.357 605.98)">Zarihum G.</text><text y="-10" transform="translate(848.357 605.98)">Zarihum G.</text></g><g id="text_label_83627" class="show"><text y="-10" class="shadow" transform="translate(-52.886 386.717)">Adunawu A.</text><text y="-10" transform="translate(-52.886 386.717)">Adunawu A.</text></g><g id="text_label_83629" class="show"><text y="-10" class="shadow" transform="translate(-4.242 597.068)">Direfereme S.</text><text y="-10" transform="translate(-4.242 597.068)">Direfereme S.</text></g><g id="text_label_83630" class="show"><text y="-10" class="shadow" transform="translate(-68.866 703.66)">Melkamu D.</text><text y="-10" transform="translate(-68.866 703.66)">Melkamu D.</text></g><g id="text_label_83631" class="show"><text y="-10" class="shadow" transform="translate(40.525 135.535)">Simret Y.</text><text y="-10" transform="translate(40.525 135.535)">Simret Y.</text></g><g id="text_label_83632" class="show"><text y="-10" class="shadow" transform="translate(665.996 608.162)">Temesgen A.</text><text y="-10" transform="translate(665.996 608.162)">Temesgen A.</text></g><g id="text_label_83633" class="show"><text y="-10" class="shadow" transform="translate(39.978 336.03)">Tashele Y.</text><text y="-10" transform="translate(39.978 336.03)">Tashele Y.</text></g><g id="text_label_83634" class="show"><text y="-10" class="shadow" transform="translate(498.762 880.566)">Terrefa</text><text y="-10" transform="translate(498.762 880.566)">Terrefa</text></g><g id="text_label_83635" class="show"><text y="-10" class="shadow" transform="translate(514.799 695.968)">Adera A.</text><text y="-10" transform="translate(514.799 695.968)">Adera A.</text></g><g id="text_label_83636" class="show"><text y="-10" class="shadow" transform="translate(571.344 253.135)">Temesegen A.</text><text y="-10" transform="translate(571.344 253.135)">Temesegen A.</text></g><g id="text_label_83637" class="show"><text y="-10" class="shadow" transform="translate(-48.508 -37.199)">Mesgana</text><text y="-10" transform="translate(-48.508 -37.199)">Mesgana</text></g><g id="text_label_83657" class="show"><text y="-10" class="shadow" transform="translate(560.273 -44.957)">Tiruneh G.</text><text y="-10" transform="translate(560.273 -44.957)">Tiruneh G.</text></g><g id="text_label_83658" class="show"><text y="-10" class="shadow" transform="translate(312.94 -13.59)">Tsebay N.</text><text y="-10" transform="translate(312.94 -13.59)">Tsebay N.</text></g><g id="text_label_83659" class="show"><text y="-10" class="shadow" transform="translate(-104.46 294.533)">Samuel B.</text><text y="-10" transform="translate(-104.46 294.533)">Samuel B.</text></g><g id="text_label_83660" class="show"><text y="-10" class="shadow" transform="translate(132.592 787)">Fikreas M.</text><text y="-10" transform="translate(132.592 787)">Fikreas M.</text></g><g id="text_label_83661" class="show"><text y="-10" class="shadow" transform="translate(377.69 902.976)">Malesa</text><text y="-10" transform="translate(377.69 902.976)">Malesa</text></g><g id="text_label_83662" class="show"><text y="-10" class="shadow" transform="translate(251.12 468.359)">Gedrehun E.</text><text y="-10" transform="translate(251.12 468.359)">Gedrehun E.</text></g><g id="text_label_83663" class="show"><text y="-10" class="shadow" transform="translate(796.525 525.142)">Eseyebe</text><text y="-10" transform="translate(796.525 525.142)">Eseyebe</text></g><g id="text_label_83664" class="show"><text y="-10" class="shadow" transform="translate(696.615 789.624)">Bekele B.</text><text y="-10" transform="translate(696.615 789.624)">Bekele B.</text></g><g id="text_label_83666" class="show"><text y="-10" class="shadow" transform="translate(708.133 216.526)">Tefara A.</text><text y="-10" transform="translate(708.133 216.526)">Tefara A.</text></g><g id="text_label_83667" class="show"><text y="-10" class="shadow" transform="translate(-79.686 165.401)">Adinew A.</text><text y="-10" transform="translate(-79.686 165.401)">Adinew A.</text></g><g id="text_label_83668" class="show"><text y="-10" class="shadow" transform="translate(500.787 520.51)">Abayunah A.</text><text y="-10" transform="translate(500.787 520.51)">Abayunah A.</text></g><g id="text_label_83669" class="show"><text y="-10" class="shadow" transform="translate(276.9 311.384)">Tarku H.</text><text y="-10" transform="translate(276.9 311.384)">Tarku H.</text></g><g id="text_label_83670" class="show"><text y="-10" class="shadow" transform="translate(375.322 176.513)">Malatu B.</text><text y="-10" transform="translate(375.322 176.513)">Malatu B.</text></g><g id="text_label_83671" class="show"><text y="-10" class="shadow" transform="translate(272.782 195.983)">Baleyinah A.</text><text y="-10" transform="translate(272.782 195.983)">Baleyinah A.</text></g><g id="text_label_83672" class="show"><text y="-10" class="shadow" transform="translate(314.578 154.367)">Kassie</text><text y="-10" transform="translate(314.578 154.367)">Kassie</text></g><g id="text_label_83673" class="show"><text y="-10" class="shadow" transform="translate(734.973 -37.386)">Amarga</text><text y="-10" transform="translate(734.973 -37.386)">Amarga</text></g><g id="text_label_83674" class="show"><text y="-10" class="shadow" transform="translate(808.161 41.082)">Haile B.</text><text y="-10" transform="translate(808.161 41.082)">Haile B.</text></g><g id="text_label_83675" class="show"><text y="-10" class="shadow" transform="translate(-118.38 62.358)">Mekeku T.</text><text y="-10" transform="translate(-118.38 62.358)">Mekeku T.</text></g><g id="text_label_83676" class="show"><text y="-10" class="shadow" transform="translate(-35.538 503.473)">Getachaw D.</text><text y="-10" transform="translate(-35.538 503.473)">Getachaw D.</text></g><g id="text_label_83677" class="show"><text y="-10" class="shadow" transform="translate(-197.898 279.673)">Temesgen W.</text><text y="-10" transform="translate(-197.898 279.673)">Temesgen W.</text></g><g id="text_label_83678" class="show"><text y="-10" class="shadow" transform="translate(191.759 614.451)">Bedaynesh H.</text><text y="-10" transform="translate(191.759 614.451)">Bedaynesh H.</text></g><g id="text_label_83679" class="show"><text y="-10" class="shadow" transform="translate(341.876 773.045)">Abreham B.</text><text y="-10" transform="translate(341.876 773.045)">Abreham B.</text></g><g id="text_label_83680" class="show"><text y="-10" class="shadow" transform="translate(790.778 170.656)">Andulem</text><text y="-10" transform="translate(790.778 170.656)">Andulem</text></g><g id="text_label_83681" class="show"><text y="-10" class="shadow" transform="translate(656.237 -106.351)">Sysay H.</text><text y="-10" transform="translate(656.237 -106.351)">Sysay H.</text></g><g id="text_label_83682" class="show"><text y="-10" class="shadow" transform="translate(456.383 -47.617)">Ayalew W.</text><text y="-10" transform="translate(456.383 -47.617)">Ayalew W.</text></g><g id="text_label_83683" class="show"><text y="-10" class="shadow" transform="translate(162.967 876.564)">Hilahn M.</text><text y="-10" transform="translate(162.967 876.564)">Hilahn M.</text></g><g id="text_label_83684" class="show"><text y="-10" class="shadow" transform="translate(545.778 417.476)">Tamirat E.</text><text y="-10" transform="translate(545.778 417.476)">Tamirat E.</text></g><g id="text_label_83685" class="show"><text y="-10" class="shadow" transform="translate(664.685 391.808)">Muletu B.</text><text y="-10" transform="translate(664.685 391.808)">Muletu B.</text></g><g id="text_label_83686" class="show"><text y="-10" class="shadow" transform="translate(643.416 17.447)">Amerga</text><text y="-10" transform="translate(643.416 17.447)">Amerga</text></g><g id="text_label_83687" class="show"><text y="-10" class="shadow" transform="translate(127.75 -4.125)">Lelago</text><text y="-10" transform="translate(127.75 -4.125)">Lelago</text></g><g id="text_label_83688" class="show"><text y="-10" class="shadow" transform="translate(275.747 887.945)">Seykalem</text><text y="-10" transform="translate(275.747 887.945)">Seykalem</text></g><g id="text_label_83689" class="show"><text y="-10" class="shadow" transform="translate(175.963 -165.248)">Zelek</text><text y="-10" transform="translate(175.963 -165.248)">Zelek</text></g><g id="text_label_83690" class="show"><text y="-10" class="shadow" transform="translate(879.995 261.6)">Zelek</text><text y="-10" transform="translate(879.995 261.6)">Zelek</text></g></g></svg>